v 31 1 18
v 35 1 18
v 35 1 -16
v 31 1 -22
v -31 1 18
v 31 1 18
v 31 1 -22
v -31 1 -22
v 31 1 22
v 35 1 22
v 35 1 18
v 31 1 18
v -25 1 22
v 31 1 22
v 31 1 18
v -31 1 18
vn 0 0.9980469 0
vn 0 0.9980469 0
vn 0 0.9980469 0
vn 0 0.9980469 0
vn 0 0.9980469 0
vn 0 0.9980469 0
vn 0 0.9980469 0
vn 0 0.9980469 0
vn 0 0.9980469 0
vn 0 0.9980469 0
vn 0 0.9980469 0
vn 0 0.9980469 0
vn 0 0.9980469 0
vn 0 0.9980469 0
vn 0 0.9980469 0
vn 0 0.9980469 0
vt 0.890625 -0.734375
vt 0.984375 -0.734375
vt 0.984375 -0.640625
vt 0.890625 -0.640625
vt 0.890625 -0.734375
vt 0.984375 -0.734375
vt 0.984375 -0.640625
vt 0.890625 -0.640625
vt 0.890625 -0.734375
vt 0.984375 -0.734375
vt 0.984375 -0.640625
vt 0.890625 -0.640625
vt 0.890625 -0.734375
vt 0.984375 -0.734375
vt 0.984375 -0.640625
vt 0.890625 -0.640625
f 5/5/5 6/6/6 7/7/7 8/8/8
f 9/9/9 10/10/10 11/11/11 12/12/12
f 13/13/13 14/14/14 15/15/15 16/16/16
f 17/17/17 18/18/18 19/19/19 20/20/20
