# Created by MKDS Course Modifier
mtllib Solaceon Town House.mtl
g polygon0
usemtl h_mado
v 4 10 12
v 22 10 12
v 22 31 12
v 4 31 12
vn 0 0 0.9980469
vn 0 0 0.9980469
vn 0 0 0.9980469
vn 0 0 0.9980469
vt 0 -1
vt 1 -1
vt 1 0
vt 0 0
f 1/1/1 2/2/2 3/3/3 4/4/4
g polygon1
usemtl h_kage
v 41 1 16
v 41 1 -15
v 33 1 16
v 33 1 -24
v -34 1 16
v -34 1 -24
vn 0 0.9980469 0
vn 0 0.9980469 0
vn 0 0.9980469 0
vn 0 0.9980469 0
vn 0 0.9980469 0
vn 0 0.9980469 0
vt 1 0.5
vt 1 1
vt 0.5 0.5
vt 0.5 1
vt 0 0.5
vt 0 1
f 5/5/5 6/6/6 7/7/7
f 6/6/6 8/8/8 7/7/7
f 7/7/7 8/8/8 9/9/9
f 8/8/8 10/10/10 9/9/9
v 41 1 24
v 41 1 16
v 33 1 24
v 33 1 16
v -26 1 24
v -34 1 16
vn 0 0.9980469 0
vn 0 0.9980469 0
vn 0 0.9980469 0
vn 0 0.9980469 0
vn 0 0.9980469 0
vn 0 0.9980469 0
vt 1 0
vt 1 0.5
vt 0.5 0
vt 0.5 0.5
vt 0 0
vt 0 0.5
f 11/11/11 12/12/12 13/13/13
f 12/12/12 14/14/14 13/13/13
f 13/13/13 14/14/14 15/15/15
f 14/14/14 16/16/16 15/15/15
g polygon2
usemtl t4_h01_b
v 13.75781 73.01563 4.242188
v 13.75781 78.44531 4.242188
v 11.04297 73.01563 -3
v 11.04297 78.44531 -3
v 13.75781 73.01563 -10.24219
v 13.75781 78.44531 -10.24219
vn -0.9199219 0 0.3945313
vn -0.9199219 0 0.3945313
vn -1 0 0
vn -1 0 0
vn -0.9199219 0 -0.3945313
vn -0.9199219 0 -0.3945313
vt 0.9375 -1.25
vt 0.9375 -1.0625
vt 0.9375 -1.25
vt 0.9375 -1.0625
vt 0.5625 -1.25
vt 0.5625 -1.0625
f 17/17/17 18/18/18 19/19/19
f 18/18/18 20/20/20 19/19/19
f 19/19/19 20/20/20 21/21/21
f 20/20/20 22/22/22 21/21/21
v 28.24219 73.01563 -10.24219
v 28.24219 78.44531 -10.24219
v 30.95703 73.01563 -3
v 30.95703 78.44531 -3
v 28.24219 73.01563 4.242188
v 28.24219 78.44531 4.242188
vn 0.9199219 0 -0.3945313
vn 0.9199219 0 -0.3945313
vn 0.9980469 0 0
vn 0.9980469 0 0
vn 0.9199219 0 0.3945313
vn 0.9199219 0 0.3945313
vt 0.9375 -1.25
vt 0.9375 -1.0625
vt 0.9375 -1.25
vt 0.9375 -1.0625
vt 0.5625 -1.25
vt 0.5625 -1.0625
f 23/23/23 24/24/24 25/25/25
f 24/24/24 26/26/26 25/25/25
f 25/25/25 26/26/26 27/27/27
f 26/26/26 28/28/28 27/27/27
v 14.66406 64.86719 3.335938
v 14.66406 72.10938 3.335938
v 11.94531 66.67578 -3
v 11.94531 72.10938 -3
v 14.66406 64.86719 -9.335938
v 14.66406 72.10938 -9.335938
vn -0.9199219 0 0.3945313
vn -0.9199219 0 0.3945313
vn -1 0 0
vn -1 0 0
vn -0.9199219 0 -0.3945313
vn -0.9199219 0 -0.3945313
vt 0.96875 -1.625
vt 0.96875 -1.375
vt 0.765625 -1.5625
vt 0.765625 -1.375
vt 0.53125 -1.625
vt 0.53125 -1.375
f 29/29/29 30/30/30 31/31/31
f 30/30/30 32/32/32 31/31/31
f 31/31/31 32/32/32 33/33/33
f 32/32/32 34/34/34 33/33/33
v 27.33594 55.8125 -9.335938
v 27.33594 72.10938 -9.335938
v 30.05469 54 -3
v 30.05469 72.10938 -3
v 27.33594 55.8125 3.335938
v 27.33594 72.10938 3.335938
vn 0.9199219 0 -0.3945313
vn 0.9199219 0 -0.3945313
vn 0.9980469 0 0
vn 0.9980469 0 0
vn 0.9199219 0 0.3945313
vn 0.9199219 0 0.3945313
vt 0.96875 -1.875
vt 0.96875 -1.375
vt 0.734375 -1.9375
vt 0.734375 -1.375
vt 0.53125 -1.875
vt 0.53125 -1.375
f 35/35/35 36/36/36 37/37/37
f 36/36/36 38/38/38 37/37/37
f 37/37/37 38/38/38 39/39/39
f 38/38/38 40/40/40 39/39/39
v 28.24219 73.01563 4.242188
v 28.24219 78.44531 4.242188
v 21.08203 73.01563 6.957031
v 21.08203 78.44531 6.957031
v 13.75781 73.01563 4.242188
v 13.75781 78.44531 4.242188
vn 0.3945313 0 0.9199219
vn 0.3945313 0 0.9199219
vn 0 0 0.9980469
vn 0 0 0.9980469
vn -0.3945313 0 0.9199219
vn -0.3945313 0 0.9199219
vt 0.9375 -1.25
vt 0.9375 -1.0625
vt 0.5625 -1.25
vt 0.5625 -1.0625
vt 0.9375 -1.25
vt 0.9375 -1.0625
f 41/41/41 42/42/42 43/43/43
f 42/42/42 44/44/44 43/43/43
f 43/43/43 44/44/44 45/45/45
f 44/44/44 46/46/46 45/45/45
v 27.33594 55.8125 3.335938
v 27.33594 72.10938 3.335938
v 21 60.42188 6.054688
v 21 72.10938 6.054688
v 14.66406 64.86719 3.335938
v 14.66406 72.10938 3.335938
vn 0.3945313 0 0.9199219
vn 0.3945313 0 0.9199219
vn 0 0 0.9980469
vn 0 0 0.9980469
vn -0.3945313 0 0.9199219
vn -0.3945313 0 0.9199219
vt -0.03125 -0.9375
vt -0.03125 -0.375
vt -0.2304688 -0.796875
vt -0.2304688 -0.375
vt -0.46875 -0.625
vt -0.46875 -0.375
f 47/47/47 48/48/48 49/49/49
f 48/48/48 50/50/50 49/49/49
f 49/49/49 50/50/50 51/51/51
f 50/50/50 52/52/52 51/51/51
v 21.08203 78.44531 -12.95703
v 13.75781 78.44531 -10.24219
v 21.08203 78.44531 -3
v 11.04297 78.44531 -3
v 13.75781 78.44531 4.242188
vn 0 0.9980469 0
vn 0 0.9980469 0
vn 0 0.9980469 0
vn 0 0.9980469 0
vn 0 0.9980469 0
vt 0.25 -0.0625
vt 0.03125 -0.0625
vt 0.25 -0.5
vt 0.03125 -0.5
vt 0.03125 -0.9375
f 53/53/53 54/54/54 55/55/55
f 54/54/54 56/56/56 55/55/55
f 55/55/55 56/56/56 57/57/57
v 21.08203 78.44531 -12.95703
v 21.08203 78.44531 -3
v 28.24219 78.44531 -10.24219
v 30.95703 78.44531 -3
vn 0 0.9980469 0
vn 0 0.9980469 0
vn 0 0.9980469 0
vn 0 0.9980469 0
vt 0.25 -0.0625
vt 0.25 -0.5
vt 0.46875 -0.0625
vt 0.46875 -0.5
f 58/58/58 59/59/59 60/60/60
f 59/59/59 61/61/61 60/60/60
v 30.95703 78.44531 -3
v 21.08203 78.44531 -3
v 28.24219 78.44531 4.242188
v 21.08203 78.44531 6.957031
vn 0 0.9980469 0
vn 0 0.9980469 0
vn 0 0.9980469 0
vn 0 0.9980469 0
vt 0.46875 -0.5
vt 0.25 -0.5
vt 0.46875 -0.9375
vt 0.25 -0.9375
f 62/62/62 63/63/63 64/64/64
f 63/63/63 65/65/65 64/64/64
v 13.75781 78.44531 4.242188
v 21.08203 78.44531 6.957031
v 21.08203 78.44531 -3
vn 0 0.9980469 0
vn 0 0.9980469 0
vn 0 0.9980469 0
vt 0.03125 -0.9375
vt 0.25 -0.9375
vt 0.25 -0.5
f 66/66/66 67/67/67 68/68/68
g polygon3
usemtl t4_h01_a
v -12 44 17
v -12 35 17
v -8 44 17
v -8 35 17
v 8.101563 44 17
v 8.101563 35 17
v 11.89844 44 17
v 11.89844 35 17
v 28 44 17
v 28 35 17
v 34 44 17
v 34 35 17
vn 0 0 0.9980469
vn 0 0 0.9980469
vn 0 0 0.9980469
vn 0 0 0.9980469
vn 0 0 0.9980469
vn 0 0 0.9980469
vn 0 0 0.9980469
vn 0 0 0.9980469
vn 0 0 0.9980469
vn 0 0 0.9980469
vn 0.7070313 0 0.7070313
vn 0.7070313 0 0.7070313
vt -0.515625 -1.890625
vt -0.515625 -1.984375
vt -0.609375 -1.890625
vt -0.609375 -1.984375
vt -0.515625 -1.890625
vt -0.515625 -1.984375
vt -0.609375 -1.890625
vt -0.609375 -1.984375
vt -0.515625 -1.890625
vt -0.515625 -1.984375
vt -0.609375 -1.890625
vt -0.609375 -1.984375
f 69/69/69 70/70/70 71/71/71
f 70/70/70 72/72/72 71/71/71
f 71/71/71 72/72/72 73/73/73
f 72/72/72 74/74/74 73/73/73
f 73/73/73 74/74/74 75/75/75
f 74/74/74 76/76/76 75/75/75
f 75/75/75 76/76/76 77/77/77
f 76/76/76 78/78/78 77/77/77
f 77/77/77 78/78/78 79/79/79
f 78/78/78 80/80/80 79/79/79
v 19 13 14
v 23 9 14
v 19 29 14
v 23 35 14
v 6 29 14
v 2 35 14
v 6 13 14
v 2 9 14
vn 0 0 0.9980469
vn 0 0 0.9980469
vn 0 0 0.9980469
vn 0 0 0.9980469
vn 0 0 0.9980469
vn 0 0 0.9980469
vn 0 0 0.9980469
vn 0 0 0.9980469
vt 0.328125 -1.493164
vt 0.34375 -1.578125
vt 0.328125 -1.144531
vt 0.34375 -1.015625
vt 0.28125 -1.144531
vt 0.265625 -1.015625
vt 0.28125 -1.493164
vt 0.265625 -1.578125
f 81/81/81 82/82/82 83/83/83
f 82/82/82 84/84/84 83/83/83
f 83/83/83 84/84/84 85/85/85
f 84/84/84 86/86/86 85/85/85
f 85/85/85 86/86/86 87/87/87
f 86/86/86 88/88/88 87/87/87
v 7 69 18
v 0 63 18
v 22 58 18
v 15 52 18
v 37 47 18
v 30 41 18
vn 0.4179688 0.5703125 0.7070313
vn 0 0 0.9980469
vn 0.4179688 0.5703125 0.7070313
vn 0 0 0.9980469
vn 0 0 0.9980469
vn 0 0 0.9980469
vt -0.984375 -0.03125
vt -0.78125 -0.03125
vt -0.984375 -0.375
vt -0.78125 -0.375
vt -0.984375 -0.71875
vt -0.78125 -0.71875
f 89/89/89 90/90/90 91/91/91
f 90/90/90 92/92/92 91/91/91
f 91/91/91 92/92/92 93/93/93
f 92/92/92 94/94/94 93/93/93
v -32 9 -24
v -32 2 -24
v -32 9 8
v -32 2 8
v -32 9 16
v -32 2 16
vn -1 0 0
vn -1 0 0
vn -1 0 0
vn -1 0 0
vn -1 0 0
vn -1 0 0
vt 0.34375 -1.578125
vt 0.34375 -1.71875
vt 0.265625 -1.578125
vt 0.265625 -1.71875
vt 0.34375 -1.578125
vt 0.34375 -1.71875
f 95/95/95 96/96/96 97/97/97
f 96/96/96 98/98/98 97/97/97
f 97/97/97 98/98/98 99/99/99
f 98/98/98 100/100/100 99/99/99
v -12 35 17
v -12 44 17
v -28 35 17
v -28 44 17
v -34 35 17
v -34 44 17
vn 0 0 0.9980469
vn 0 0 0.9980469
vn 0 0 0.9980469
vn 0 0 0.9980469
vn -0.7070313 0 0.7070313
vn -0.7070313 0 0.7070313
vt -0.609375 -1.984375
vt -0.609375 -1.890625
vt -0.515625 -1.984375
vt -0.515625 -1.890625
vt -0.609375 -1.984375
vt -0.609375 -1.890625
f 101/101/101 102/102/102 103/103/103
f 102/102/102 104/104/104 103/103/103
f 103/103/103 104/104/104 105/105/105
f 104/104/104 106/106/106 105/105/105
v -37 47 18
v -30 41 18
v -22 58 18
v -15 52 18
v -7 69 18
v 0 63 18
vn 0 0 0.9980469
vn 0 0 0.9980469
vn -0.4179688 0.5703125 0.7070313
vn 0 0 0.9980469
vn -0.4179688 0.5703125 0.7070313
vn 0 0 0.9980469
vt -0.984375 -0.71875
vt -0.78125 -0.71875
vt -0.984375 -0.375
vt -0.78125 -0.375
vt -0.984375 -0.03125
vt -0.78125 -0.03125
f 107/107/107 108/108/108 109/109/109
f 108/108/108 110/110/110 109/109/109
f 109/109/109 110/110/110 111/111/111
f 110/110/110 112/112/112 111/111/111
v 2 2 14
v 23 2 14
v 2 9 14
v 23 9 14
v 6 13 14
v 19 13 14
vn 0 0 0.9980469
vn 0 0 0.9980469
vn 0 0 0.9980469
vn 0 0 0.9980469
vn 0 0 0.9980469
vn 0 0 0.9980469
vt 0.265625 -1.71875
vt 0.34375 -1.71875
vt 0.265625 -1.578125
vt 0.34375 -1.578125
vt 0.28125 -1.493164
vt 0.328125 -1.493164
f 113/113/113 114/114/114 115/115/115
f 114/114/114 116/116/116 115/115/115
f 115/115/115 116/116/116 117/117/117
f 116/116/116 118/118/118 117/117/117
v -18 35 14
v -23 35 14
v -18 9 14
v -23 9 14
v -18 2 14
v -23 2 14
vn 0 0 0.9980469
vn 0 0 0.9980469
vn 0 0 0.9980469
vn 0 0 0.9980469
vn 0 0 0.9980469
vn 0 0 0.9980469
vt 0.34375 -1.015625
vt 0.265625 -1.015625
vt 0.34375 -1.578125
vt 0.265625 -1.578125
vt 0.34375 -1.71875
vt 0.265625 -1.71875
f 119/119/119 120/120/120 121/121/121
f 120/120/120 122/122/122 121/121/121
f 121/121/121 122/122/122 123/123/123
f 122/122/122 124/124/124 123/123/123
v 32 2 -24
v 32 9 -24
v 32 2 8
v 32 9 8
v 32 2 16
v 32 9 16
vn 0.9980469 0 0
vn 0.9980469 0 0
vn 0.9980469 0 0
vn 0.9980469 0 0
vn 0.9980469 0 0
vn 0.9980469 0 0
vt 0.265625 -1.71875
vt 0.265625 -1.578125
vt 0.34375 -1.71875
vt 0.34375 -1.578125
vt 0.265625 -1.71875
vt 0.265625 -1.578125
f 125/125/125 126/126/126 127/127/127
f 126/126/126 128/128/128 127/127/127
f 127/127/127 128/128/128 129/129/129
f 128/128/128 130/130/130 129/129/129
v 23 2 16
v 32 2 16
v 23 9 16
v 32 9 16
v 23 35 16
v 32 35 16
vn 0 0 0.9980469
vn 0 0 0.9980469
vn 0 0 0.9980469
vn 0 0 0.9980469
vn 0 0 0.9980469
vn 0 0 0.9980469
vt 0.21875 -1.71875
vt 0.015625 -1.71875
vt 0.21875 -1.578125
vt 0.015625 -1.578125
vt 0.21875 -1.03125
vt 0.015625 -1.03125
f 131/131/131 132/132/132 133/133/133
f 132/132/132 134/134/134 133/133/133
f 133/133/133 134/134/134 135/135/135
f 134/134/134 136/136/136 135/135/135
v -23 35 16
v -32 35 16
v -23 9 16
v -32 9 16
v -23 2 16
v -32 2 16
vn 0 0 0.9980469
vn 0 0 0.9980469
vn 0 0 0.9980469
vn 0 0 0.9980469
vn 0 0 0.9980469
vn 0 0 0.9980469
vt 0.21875 -1.03125
vt 0.015625 -1.03125
vt 0.21875 -1.578125
vt 0.015625 -1.578125
vt 0.21875 -1.71875
vt 0.015625 -1.71875
f 137/137/137 138/138/138 139/139/139
f 138/138/138 140/140/140 139/139/139
f 139/139/139 140/140/140 141/141/141
f 140/140/140 142/142/142 141/141/141
v -12 62 12
v -12 44 12
v -12 44 17
v -12 62 17
v -8 44 12
v -8 62 12
v -8 62 17
v -8 44 17
v 11.89844 44 12
v 11.89844 44 17
v 28 44 17
v 28 44 12
v 11.89844 44 17
v 11.89844 62 17
v 8.101563 62 17
v 8.101563 44 17
v 8.101563 44 12
v 8.101563 62 12
v -8 62 12
v -8 44 12
v -8 44 12
v -8 44 17
v 8.101563 44 17
v 8.101563 44 12
v -8 44 17
v -8 62 17
v -12 62 17
v -12 44 17
v -12 44 12
v -12 62 12
v -28 50 12
v -28 44 12
v -28 44 17
v -12 44 17
v -12 44 12
v -28 44 12
v -32 44 -24
v -32 35 -24
v -32 35 8
v -32 44 8
v 32 44 8
v 32 35 8
v 32 35 -24
v 32 44 -24
v -37 47 18
v -22 58 18
v -22 58 -25
v -37 47 -25
v 34 35 17
v 34 35 8
v 34 44 8
v 34 44 17
v 28 50 12
v 11.89844 62 12
v 11.89844 44 12
v 28 44 12
v -34 44 8
v -34 35 8
v -34 35 17
v -34 44 17
v 2 35 12
v 2 2 12
v 2 9 14
v 2 35 14
v 22 58 -25
v 7 69 -25
v 7 69 18
v 22 58 18
v 7 69 18
v 7 69 -25
v 0 75 -25
v 0 75 18
v 23 9 14
v 23 9 16
v 23 35 16
v 23 35 14
v -23 9 14
v -23 9 16
v -23 2 16
v -23 2 14
v 0 75 18
v 0 75 -25
v -7 69 -25
v -7 69 18
v -7 69 18
v -7 69 -25
v -22 58 -25
v -22 58 18
v 0 75 18
v -7 69 18
v 0 63 18
v 7 69 18
v 32 9 16
v 32 9 8
v 32 35 8
v 32 35 16
v 8.101563 62 12
v 8.101563 44 12
v 8.101563 44 17
v 8.101563 62 17
v 11.89844 44 12
v 11.89844 62 12
v 11.89844 62 17
v 11.89844 44 17
v -18 2 12
v 2 2 12
v 2 2 1
v -18 2 1
v -18 35 1
v -18 35 12
v -18 2 12
v -18 2 1
v 2 35 1
v 2 2 1
v 2 2 12
v 2 35 12
v -18 35 12
v -18 35 14
v -18 9 14
v -18 2 12
v 37 47 -25
v 22 58 -25
v 22 58 18
v 37 47 18
v -18 35 1
v -18 2 1
v 2 2 1
v 2 35 1
v 23 2 16
v 23 9 16
v 23 9 14
v 23 2 14
v -23 35 16
v -23 9 16
v -23 9 14
v -23 35 14
v -32 35 -24
v -32 9 -24
v -32 9 8
v -32 35 8
v -32 35 8
v -32 9 8
v -32 9 16
v -32 35 16
v 32 35 8
v 32 9 8
v 32 9 -24
v 32 35 -24
v 19 29 14
v 6 29 14
v 6 13 14
v 19 13 14
vn -1 0 0
vn -1 0 0
vn -1 0 0
vn -1 0 0
vn 0.9980469 0 0
vn 0.9980469 0 0
vn 0.9980469 0 0
vn 0.9980469 0 0
vn 0 0.9980469 0
vn 0 0.9980469 0
vn 0 0.9980469 0
vn 0 0.9980469 0
vn 0 0 0.9980469
vn 0 0 0.9980469
vn 0 0 0.9980469
vn 0 0 0.9980469
vn 0 0 0.9980469
vn 0 0 0.9980469
vn 0 0 0.9980469
vn 0 0 0.9980469
vn 0 0.9980469 0
vn 0 0.9980469 0
vn 0 0.9980469 0
vn 0 0.9980469 0
vn 0 0 0.9980469
vn 0 0 0.9980469
vn 0 0 0.9980469
vn 0 0 0.9980469
vn 0 0 0.9980469
vn 0 0 0.9980469
vn 0 0 0.9980469
vn 0 0 0.9980469
vn 0 0.9980469 0
vn 0 0.9980469 0
vn 0 0.9980469 0
vn 0 0.9980469 0
vn -1 0 0
vn -1 0 0
vn -1 0 0
vn -1 0 0
vn 0.9980469 0 0
vn 0.9980469 0 0
vn 0.9980469 0 0
vn 0.9980469 0 0
vn -0.5917969 0.8066406 0
vn -0.4179688 0.5703125 0.7070313
vn -0.5917969 0.8066406 0
vn -0.5917969 0.8066406 0
vn 0.7070313 0 0.7070313
vn 0.9980469 0 0
vn 0.9980469 0 0
vn 0.7070313 0 0.7070313
vn 0 0 0.9980469
vn 0 0 0.9980469
vn 0 0 0.9980469
vn 0 0 0.9980469
vn -1 0 0
vn -1 0 0
vn -0.7070313 0 0.7070313
vn -0.7070313 0 0.7070313
vn -1 0 0
vn -1 0 0
vn -1 0 0
vn -1 0 0
vn 0.6210938 0.7832031 0
vn 0.6210938 0.7832031 0
vn 0.4179688 0.5703125 0.7070313
vn 0.4179688 0.5703125 0.7070313
vn 0.4179688 0.5703125 0.7070313
vn 0.6210938 0.7832031 0
vn 0 0.9980469 0
vn 0 0.8359375 0.5507813
vn -1 0 0
vn -1 0 0
vn -1 0 0
vn -1 0 0
vn 0.9980469 0 0
vn 0.9980469 0 0
vn 0.9980469 0 0
vn 0.9980469 0 0
vn 0 0.8359375 0.5507813
vn 0 0.9980469 0
vn -0.5917969 0.8066406 0
vn -0.4179688 0.5703125 0.7070313
vn -0.4179688 0.5703125 0.7070313
vn -0.5917969 0.8066406 0
vn -0.5917969 0.8066406 0
vn -0.4179688 0.5703125 0.7070313
vn 0 0.8359375 0.5507813
vn -0.4179688 0.5703125 0.7070313
vn 0 0 0.9980469
vn 0.4179688 0.5703125 0.7070313
vn 0.9980469 0 0
vn 0.9980469 0 0
vn 0.9980469 0 0
vn 0.9980469 0 0
vn -1 0 0
vn -1 0 0
vn -1 0 0
vn -1 0 0
vn 0.9980469 0 0
vn 0.9980469 0 0
vn 0.9980469 0 0
vn 0.9980469 0 0
vn 0 0.9980469 0
vn 0 0.9980469 0
vn 0 0.9980469 0
vn 0 0.9980469 0
vn 0.9980469 0 0
vn 0.9980469 0 0
vn 0.9980469 0 0
vn 0.9980469 0 0
vn -1 0 0
vn -1 0 0
vn -1 0 0
vn -1 0 0
vn 0.9980469 0 0
vn 0.9980469 0 0
vn 0.9980469 0 0
vn 0.9980469 0 0
vn 0.6210938 0.7832031 0
vn 0.6210938 0.7832031 0
vn 0.4179688 0.5703125 0.7070313
vn 0.6210938 0.7832031 0
vn 0 0 0.9980469
vn 0 0 0.9980469
vn 0 0 0.9980469
vn 0 0 0.9980469
vn -1 0 0
vn -1 0 0
vn -1 0 0
vn -1 0 0
vn 0.9980469 0 0
vn 0.9980469 0 0
vn 0.9980469 0 0
vn 0.9980469 0 0
vn -1 0 0
vn -1 0 0
vn -1 0 0
vn -1 0 0
vn -1 0 0
vn -1 0 0
vn -1 0 0
vn -1 0 0
vn 0.9980469 0 0
vn 0.9980469 0 0
vn 0.9980469 0 0
vn 0.9980469 0 0
vn 0 0 0.9980469
vn 0 0 0.9980469
vn 0 0 0.9980469
vn 0 0 0.9980469
vt 0.3066406 -0.7792969
vt 0.3066406 -0.8134766
vt 0.3203125 -0.8134766
vt 0.3203125 -0.7792969
vt 0.2998047 -0.8134766
vt 0.2998047 -0.7792969
vt 0.2861328 -0.7792969
vt 0.2861328 -0.8134766
vt -0.609375 -1.765625
vt -0.609375 -1.890625
vt -0.515625 -1.890625
vt -0.515625 -1.765625
vt 0.984375 -0.984375
vt 0.984375 -0.515625
vt 0.890625 -0.515625
vt 0.890625 -0.984375
vt 0.390625 -0.359375
vt 0.390625 -0.015625
vt 0.734375 -0.015625
vt 0.734375 -0.359375
vt -0.609375 -1.765625
vt -0.609375 -1.890625
vt -0.515625 -1.890625
vt -0.515625 -1.765625
vt 0.984375 -0.984375
vt 0.984375 -0.515625
vt 0.890625 -0.515625
vt 0.890625 -0.984375
vt 0.734375 -0.359375
vt 0.734375 -0.015625
vt 0.390625 -0.015625
vt 0.390625 -0.359375
vt -0.609375 -1.890625
vt -0.515625 -1.890625
vt -0.515625 -1.765625
vt -0.609375 -1.765625
vt -0.75 -1.03125
vt -0.75 -1.1875
vt -0.640625 -1.1875
vt -0.640625 -1.03125
vt -0.75 -1.03125
vt -0.75 -1.1875
vt -0.640625 -1.1875
vt -0.640625 -1.03125
vt -0.453125 -1.484375
vt -0.140625 -1.484375
vt -0.140625 -1.453125
vt -0.453125 -1.453125
vt -0.984375 -1.984375
vt -0.78125 -1.984375
vt -0.78125 -1.8125
vt -0.984375 -1.8125
vt 0.734375 -0.015625
vt 0.390625 -0.015625
vt 0.390625 -0.359375
vt 0.734375 -0.359375
vt -0.984375 -1.8125
vt -0.984375 -1.984375
vt -0.78125 -1.984375
vt -0.78125 -1.8125
vt 0.2910156 -0.7666016
vt 0.2910156 -0.8359375
vt 0.3037109 -0.8232422
vt 0.3037109 -0.7666016
vt -0.140625 -1.640625
vt -0.453125 -1.640625
vt -0.453125 -1.671875
vt -0.140625 -1.671875
vt -0.609375 -1.671875
vt -0.609375 -1.640625
vt -0.484375 -1.640625
vt -0.484375 -1.671875
vt 0.2861328 -0.8300781
vt 0.2998047 -0.8300781
vt 0.2998047 -0.7724609
vt 0.2861328 -0.7724609
vt 0.3583984 -0.7597656
vt 0.2646484 -0.7597656
vt 0.2646484 -0.8535156
vt 0.3583984 -0.8535156
vt -0.4902344 -1.484375
vt -0.4902344 -1.453125
vt -0.609375 -1.453125
vt -0.609375 -1.484375
vt -0.140625 -1.484375
vt -0.140625 -1.453125
vt -0.453125 -1.453125
vt -0.453125 -1.484375
vt -0.984375 -1.203125
vt -0.984375 -1.375
vt -0.78125 -1.375
vt -0.78125 -1.203125
vt 0.265625 -1.578125
vt 0.34375 -1.578125
vt 0.34375 -1.015625
vt 0.265625 -1.015625
vt 0.3115234 -0.7851563
vt 0.3115234 -0.8193359
vt 0.3242188 -0.8193359
vt 0.3242188 -0.7851563
vt 0.3408203 -0.8134766
vt 0.3408203 -0.7792969
vt 0.3271484 -0.7792969
vt 0.3271484 -0.8134766
vt 0.984375 -0.359375
vt 0.984375 -0.015625
vt 0.765625 -0.015625
vt 0.765625 -0.359375
vt 0.8154297 -0.1757813
vt 0.8037109 -0.1757813
vt 0.8037109 -0.2275391
vt 0.8154297 -0.2275391
vt 0.7871094 -0.1757813
vt 0.7871094 -0.2275391
vt 0.7988281 -0.2275391
vt 0.7988281 -0.1757813
vt 0.3232422 -0.7666016
vt 0.3095703 -0.7666016
vt 0.3095703 -0.8232422
vt 0.3232422 -0.8359375
vt -0.140625 -1.640625
vt -0.453125 -1.640625
vt -0.453125 -1.671875
vt -0.140625 -1.671875
vt 0.7861328 -0.1767578
vt 0.7861328 -0.2285156
vt 0.8076172 -0.2285156
vt 0.8076172 -0.1767578
vt 0.3583984 -0.8535156
vt 0.3583984 -0.7597656
vt 0.2646484 -0.7597656
vt 0.2646484 -0.8535156
vt 0.3056641 -0.7724609
vt 0.3056641 -0.8300781
vt 0.3183594 -0.8300781
vt 0.3183594 -0.7724609
vt 0.265625 -1.015625
vt 0.265625 -1.578125
vt 0.34375 -1.578125
vt 0.34375 -1.015625
vt 0.265625 -1.015625
vt 0.265625 -1.578125
vt 0.34375 -1.578125
vt 0.34375 -1.015625
vt 0.265625 -1.015625
vt 0.265625 -1.578125
vt 0.34375 -1.578125
vt 0.34375 -1.015625
vt 0.859375 -0.984375
vt 0.859375 -0.765625
vt 0.640625 -0.765625
vt 0.640625 -0.984375
f 143/143/143 144/144/144 145/145/145 146/146/146
f 147/147/147 148/148/148 149/149/149 150/150/150
f 151/151/151 152/152/152 153/153/153 154/154/154
f 155/155/155 156/156/156 157/157/157 158/158/158
f 159/159/159 160/160/160 161/161/161 162/162/162
f 163/163/163 164/164/164 165/165/165 166/166/166
f 167/167/167 168/168/168 169/169/169 170/170/170
f 171/171/171 172/172/172 173/173/173 174/174/174
f 175/175/175 176/176/176 177/177/177 178/178/178
f 179/179/179 180/180/180 181/181/181 182/182/182
f 183/183/183 184/184/184 185/185/185 186/186/186
f 187/187/187 188/188/188 189/189/189 190/190/190
f 191/191/191 192/192/192 193/193/193 194/194/194
f 195/195/195 196/196/196 197/197/197 198/198/198
f 199/199/199 200/200/200 201/201/201 202/202/202
f 203/203/203 204/204/204 205/205/205 206/206/206
f 207/207/207 208/208/208 209/209/209 210/210/210
f 211/211/211 212/212/212 213/213/213 214/214/214
f 215/215/215 216/216/216 217/217/217 218/218/218
f 219/219/219 220/220/220 221/221/221 222/222/222
f 223/223/223 224/224/224 225/225/225 226/226/226
f 227/227/227 228/228/228 229/229/229 230/230/230
f 231/231/231 232/232/232 233/233/233 234/234/234
f 235/235/235 236/236/236 237/237/237 238/238/238
f 239/239/239 240/240/240 241/241/241 242/242/242
f 243/243/243 244/244/244 245/245/245 246/246/246
f 247/247/247 248/248/248 249/249/249 250/250/250
f 251/251/251 252/252/252 253/253/253 254/254/254
f 255/255/255 256/256/256 257/257/257 258/258/258
f 259/259/259 260/260/260 261/261/261 262/262/262
f 263/263/263 264/264/264 265/265/265 266/266/266
f 267/267/267 268/268/268 269/269/269 270/270/270
f 271/271/271 272/272/272 273/273/273 274/274/274
f 275/275/275 276/276/276 277/277/277 278/278/278
f 279/279/279 280/280/280 281/281/281 282/282/282
f 283/283/283 284/284/284 285/285/285 286/286/286
f 287/287/287 288/288/288 289/289/289 290/290/290
f 291/291/291 292/292/292 293/293/293 294/294/294
v -18 2 12
v -18 9 14
v -18 2 14
v 2 9 14
v 2 2 12
v 2 2 14
vn 0.9980469 0 0
vn 0.9980469 0 0
vn 0.9980469 0 0
vn -1 0 0
vn -1 0 0
vn -1 0 0
vt 0.3232422 -0.8359375
vt 0.3095703 -0.8232422
vt 0.3095703 -0.8359375
vt 0.3037109 -0.8232422
vt 0.2910156 -0.8359375
vt 0.3037109 -0.8359375
f 295/295/295 296/296/296 297/297/297
f 298/298/298 299/299/299 300/300/300
